<svg width="187" height="94" viewBox="0 0 187 94" fill="none" xmlns="http://www.w3.org/2000/svg">
<path d="M6.2394 81.2799H3.9034V86.2079H2.3354V75.0079H3.9034V79.8719H6.2714L9.7914 75.0079H11.5034L7.5034 80.4319L11.6954 86.2079H9.8714L6.2394 81.2799ZM16.602 86.3039C15.7594 86.3039 15.002 86.1172 14.33 85.7439C13.658 85.3705 13.13 84.8585 12.746 84.2079C12.3727 83.5465 12.186 82.7999 12.186 81.9679C12.186 81.1359 12.3727 80.3945 12.746 79.7439C13.13 79.0825 13.658 78.5705 14.33 78.2079C15.002 77.8345 15.7594 77.6479 16.602 77.6479C17.4447 77.6479 18.1967 77.8345 18.858 78.2079C19.53 78.5705 20.0527 79.0825 20.426 79.7439C20.81 80.3945 21.002 81.1359 21.002 81.9679C21.002 82.7999 20.81 83.5465 20.426 84.2079C20.0527 84.8585 19.53 85.3705 18.858 85.7439C18.1967 86.1172 17.4447 86.3039 16.602 86.3039ZM16.602 84.9599C17.146 84.9599 17.6314 84.8372 18.058 84.5919C18.4954 84.3359 18.8367 83.9839 19.082 83.5359C19.3274 83.0772 19.45 82.5545 19.45 81.9679C19.45 81.3812 19.3274 80.8639 19.082 80.4159C18.8367 79.9572 18.4954 79.6052 18.058 79.3599C17.6314 79.1145 17.146 78.9919 16.602 78.9919C16.058 78.9919 15.5674 79.1145 15.13 79.3599C14.7034 79.6052 14.362 79.9572 14.106 80.4159C13.8607 80.8639 13.738 81.3812 13.738 81.9679C13.738 82.5545 13.8607 83.0772 14.106 83.5359C14.362 83.9839 14.7034 84.3359 15.13 84.5919C15.5674 84.8372 16.058 84.9599 16.602 84.9599ZM27.716 77.6479C28.5374 77.6479 29.2734 77.8292 29.924 78.1919C30.5747 78.5545 31.0814 79.0612 31.444 79.7119C31.8174 80.3625 32.004 81.1145 32.004 81.9679C32.004 82.8212 31.8174 83.5785 31.444 84.2399C31.0814 84.8905 30.5747 85.3972 29.924 85.7599C29.2734 86.1225 28.5374 86.3039 27.716 86.3039C27.108 86.3039 26.548 86.1865 26.036 85.9519C25.5347 85.7172 25.108 85.3759 24.756 84.9279V89.3119H23.22V77.7279H24.692V79.0719C25.0334 78.6025 25.4654 78.2505 25.988 78.0159C26.5107 77.7705 27.0867 77.6479 27.716 77.6479ZM27.588 84.9599C28.132 84.9599 28.6174 84.8372 29.044 84.5919C29.4814 84.3359 29.8227 83.9839 30.068 83.5359C30.324 83.0772 30.452 82.5545 30.452 81.9679C30.452 81.3812 30.324 80.8639 30.068 80.4159C29.8227 79.9572 29.4814 79.6052 29.044 79.3599C28.6174 79.1145 28.132 78.9919 27.588 78.9919C27.0547 78.9919 26.5694 79.1199 26.132 79.3759C25.7054 79.6212 25.364 79.9679 25.108 80.4159C24.8627 80.8639 24.74 81.3812 24.74 81.9679C24.74 82.5545 24.8627 83.0772 25.108 83.5359C25.3534 83.9839 25.6947 84.3359 26.132 84.5919C26.5694 84.8372 27.0547 84.9599 27.588 84.9599ZM37.8677 86.3039C37.025 86.3039 36.2677 86.1172 35.5957 85.7439C34.9237 85.3705 34.3957 84.8585 34.0117 84.2079C33.6383 83.5465 33.4517 82.7999 33.4517 81.9679C33.4517 81.1359 33.6383 80.3945 34.0117 79.7439C34.3957 79.0825 34.9237 78.5705 35.5957 78.2079C36.2677 77.8345 37.025 77.6479 37.8677 77.6479C38.7103 77.6479 39.4623 77.8345 40.1237 78.2079C40.7957 78.5705 41.3183 79.0825 41.6917 79.7439C42.0757 80.3945 42.2677 81.1359 42.2677 81.9679C42.2677 82.7999 42.0757 83.5465 41.6917 84.2079C41.3183 84.8585 40.7957 85.3705 40.1237 85.7439C39.4623 86.1172 38.7103 86.3039 37.8677 86.3039ZM37.8677 84.9599C38.4117 84.9599 38.897 84.8372 39.3237 84.5919C39.761 84.3359 40.1023 83.9839 40.3477 83.5359C40.593 83.0772 40.7157 82.5545 40.7157 81.9679C40.7157 81.3812 40.593 80.8639 40.3477 80.4159C40.1023 79.9572 39.761 79.6052 39.3237 79.3599C38.897 79.1145 38.4117 78.9919 37.8677 78.9919C37.3237 78.9919 36.833 79.1145 36.3957 79.3599C35.969 79.6052 35.6277 79.9572 35.3717 80.4159C35.1263 80.8639 35.0037 81.3812 35.0037 81.9679C35.0037 82.5545 35.1263 83.0772 35.3717 83.5359C35.6277 83.9839 35.969 84.3359 36.3957 84.5919C36.833 84.8372 37.3237 84.9599 37.8677 84.9599ZM50.4932 79.0719H47.3892V86.2079H45.8532V79.0719H42.7492V77.7279H50.4932V79.0719ZM55.3598 82.6239H53.5998V86.2079H52.0638V77.7279H53.5998V81.3119H55.3918L58.1438 77.7279H59.7918L56.5758 81.8079L60.0158 86.2079H58.2078L55.3598 82.6239ZM64.977 86.3039C64.1344 86.3039 63.377 86.1172 62.705 85.7439C62.033 85.3705 61.505 84.8585 61.121 84.2079C60.7477 83.5465 60.561 82.7999 60.561 81.9679C60.561 81.1359 60.7477 80.3945 61.121 79.7439C61.505 79.0825 62.033 78.5705 62.705 78.2079C63.377 77.8345 64.1344 77.6479 64.977 77.6479C65.8197 77.6479 66.5717 77.8345 67.233 78.2079C67.905 78.5705 68.4277 79.0825 68.801 79.7439C69.185 80.3945 69.377 81.1359 69.377 81.9679C69.377 82.7999 69.185 83.5465 68.801 84.2079C68.4277 84.8585 67.905 85.3705 67.233 85.7439C66.5717 86.1172 65.8197 86.3039 64.977 86.3039ZM64.977 84.9599C65.521 84.9599 66.0064 84.8372 66.433 84.5919C66.8704 84.3359 67.2117 83.9839 67.457 83.5359C67.7024 83.0772 67.825 82.5545 67.825 81.9679C67.825 81.3812 67.7024 80.8639 67.457 80.4159C67.2117 79.9572 66.8704 79.6052 66.433 79.3599C66.0064 79.1145 65.521 78.9919 64.977 78.9919C64.433 78.9919 63.9424 79.1145 63.505 79.3599C63.0784 79.6052 62.737 79.9572 62.481 80.4159C62.2357 80.8639 62.113 81.3812 62.113 81.9679C62.113 82.5545 62.2357 83.0772 62.481 83.5359C62.737 83.9839 63.0784 84.3359 63.505 84.5919C63.9424 84.8372 64.433 84.9599 64.977 84.9599ZM79.259 82.0159C79.259 82.1332 79.2484 82.2879 79.227 82.4799H72.347C72.443 83.2265 72.7684 83.8292 73.323 84.2879C73.8884 84.7359 74.587 84.9599 75.419 84.9599C76.4324 84.9599 77.2484 84.6185 77.867 83.9359L78.715 84.9279C78.331 85.3759 77.851 85.7172 77.275 85.9519C76.7097 86.1865 76.075 86.3039 75.371 86.3039C74.475 86.3039 73.6804 86.1225 72.987 85.7599C72.2937 85.3865 71.755 84.8692 71.371 84.2079C70.9977 83.5465 70.811 82.7999 70.811 81.9679C70.811 81.1465 70.9924 80.4052 71.355 79.7439C71.7284 79.0825 72.235 78.5705 72.875 78.2079C73.5257 77.8345 74.2564 77.6479 75.067 77.6479C75.8777 77.6479 76.5977 77.8345 77.227 78.2079C77.867 78.5705 78.363 79.0825 78.715 79.7439C79.0777 80.4052 79.259 81.1625 79.259 82.0159ZM75.067 78.9439C74.331 78.9439 73.7124 79.1679 73.211 79.6159C72.7204 80.0639 72.4324 80.6505 72.347 81.3759H77.787C77.7017 80.6612 77.4084 80.0799 76.907 79.6319C76.4164 79.1732 75.803 78.9439 75.067 78.9439ZM91.7148 81.8079C92.8134 82.0852 93.3628 82.7732 93.3628 83.8719C93.3628 84.6185 93.0801 85.1945 92.5148 85.5999C91.9601 86.0052 91.1281 86.2079 90.0188 86.2079H85.9388V77.7279H89.8748C90.8774 77.7279 91.6614 77.9199 92.2268 78.3039C92.7921 78.6772 93.0748 79.2105 93.0748 79.9039C93.0748 80.3519 92.9521 80.7412 92.7068 81.0719C92.4721 81.3919 92.1414 81.6372 91.7148 81.8079ZM87.4428 81.3759H89.7468C90.3334 81.3759 90.7761 81.2692 91.0748 81.0559C91.3841 80.8425 91.5388 80.5332 91.5388 80.1279C91.5388 79.3172 90.9414 78.9119 89.7468 78.9119H87.4428V81.3759ZM89.9068 85.0239C90.5468 85.0239 91.0268 84.9225 91.3468 84.7199C91.6668 84.5172 91.8268 84.2025 91.8268 83.7759C91.8268 83.3385 91.6774 83.0132 91.3788 82.7999C91.0908 82.5865 90.6321 82.4799 90.0028 82.4799H87.4428V85.0239H89.9068ZM95.7669 77.7279H97.3029V83.9039L102.503 77.7279H103.895V86.2079H102.359V80.0319L97.1749 86.2079H95.7669V77.7279ZM115.5 84.8639V88.1759H114.06V86.2079H106.972V88.1759H105.516V84.8639H105.964C106.508 84.8319 106.882 84.4479 107.084 83.7119C107.287 82.9759 107.426 81.9359 107.5 80.5919L107.628 77.7279H114.204V84.8639H115.5ZM108.908 80.7039C108.866 81.7705 108.775 82.6559 108.636 83.3599C108.508 84.0532 108.268 84.5545 107.916 84.8639H112.668V79.0719H108.988L108.908 80.7039ZM125.165 82.0159C125.165 82.1332 125.155 82.2879 125.133 82.4799H118.253C118.349 83.2265 118.675 83.8292 119.229 84.2879C119.795 84.7359 120.493 84.9599 121.325 84.9599C122.339 84.9599 123.155 84.6185 123.773 83.9359L124.621 84.9279C124.237 85.3759 123.757 85.7172 123.181 85.9519C122.616 86.1865 121.981 86.3039 121.277 86.3039C120.381 86.3039 119.587 86.1225 118.893 85.7599C118.2 85.3865 117.661 84.8692 117.277 84.2079C116.904 83.5465 116.717 82.7999 116.717 81.9679C116.717 81.1465 116.899 80.4052 117.261 79.7439C117.635 79.0825 118.141 78.5705 118.781 78.2079C119.432 77.8345 120.163 77.6479 120.973 77.6479C121.784 77.6479 122.504 77.8345 123.133 78.2079C123.773 78.5705 124.269 79.0825 124.621 79.7439C124.984 80.4052 125.165 81.1625 125.165 82.0159ZM120.973 78.9439C120.237 78.9439 119.619 79.1679 119.117 79.6159C118.627 80.0639 118.339 80.6505 118.253 81.3759H123.693C123.608 80.6612 123.315 80.0799 122.813 79.6319C122.323 79.1732 121.709 78.9439 120.973 78.9439ZM131.18 86.3039C130.337 86.3039 129.58 86.1172 128.908 85.7439C128.236 85.3705 127.708 84.8585 127.324 84.2079C126.951 83.5465 126.764 82.7999 126.764 81.9679C126.764 81.1359 126.951 80.3945 127.324 79.7439C127.708 79.0825 128.236 78.5705 128.908 78.2079C129.58 77.8345 130.337 77.6479 131.18 77.6479C132.023 77.6479 132.775 77.8345 133.436 78.2079C134.108 78.5705 134.631 79.0825 135.004 79.7439C135.388 80.3945 135.58 81.1359 135.58 81.9679C135.58 82.7999 135.388 83.5465 135.004 84.2079C134.631 84.8585 134.108 85.3705 133.436 85.7439C132.775 86.1172 132.023 86.3039 131.18 86.3039ZM131.18 84.9599C131.724 84.9599 132.209 84.8372 132.636 84.5919C133.073 84.3359 133.415 83.9839 133.66 83.5359C133.905 83.0772 134.028 82.5545 134.028 81.9679C134.028 81.3812 133.905 80.8639 133.66 80.4159C133.415 79.9572 133.073 79.6052 132.636 79.3599C132.209 79.1145 131.724 78.9919 131.18 78.9919C130.636 78.9919 130.145 79.1145 129.708 79.3599C129.281 79.6052 128.94 79.9572 128.684 80.4159C128.439 80.8639 128.316 81.3812 128.316 81.9679C128.316 82.5545 128.439 83.0772 128.684 83.5359C128.94 83.9839 129.281 84.3359 129.708 84.5919C130.145 84.8372 130.636 84.9599 131.18 84.9599ZM145.727 86.3039C144.884 86.3039 144.127 86.1172 143.455 85.7439C142.783 85.3705 142.255 84.8585 141.871 84.2079C141.498 83.5465 141.311 82.7999 141.311 81.9679C141.311 81.1359 141.498 80.3945 141.871 79.7439C142.255 79.0825 142.783 78.5705 143.455 78.2079C144.127 77.8345 144.884 77.6479 145.727 77.6479C146.57 77.6479 147.322 77.8345 147.983 78.2079C148.655 78.5705 149.178 79.0825 149.551 79.7439C149.935 80.3945 150.127 81.1359 150.127 81.9679C150.127 82.7999 149.935 83.5465 149.551 84.2079C149.178 84.8585 148.655 85.3705 147.983 85.7439C147.322 86.1172 146.57 86.3039 145.727 86.3039ZM145.727 84.9599C146.271 84.9599 146.756 84.8372 147.183 84.5919C147.62 84.3359 147.962 83.9839 148.207 83.5359C148.452 83.0772 148.575 82.5545 148.575 81.9679C148.575 81.3812 148.452 80.8639 148.207 80.4159C147.962 79.9572 147.62 79.6052 147.183 79.3599C146.756 79.1145 146.271 78.9919 145.727 78.9919C145.183 78.9919 144.692 79.1145 144.255 79.3599C143.828 79.6052 143.487 79.9572 143.231 80.4159C142.986 80.8639 142.863 81.3812 142.863 81.9679C142.863 82.5545 142.986 83.0772 143.231 83.5359C143.487 83.9839 143.828 84.3359 144.255 84.5919C144.692 84.8372 145.183 84.9599 145.727 84.9599ZM156.642 77.7279H158.178V81.3279H163.01V77.7279H164.546V86.2079H163.01V82.6559H158.178V86.2079H156.642V77.7279ZM170.557 77.6479C171.73 77.6479 172.626 77.9359 173.245 78.5119C173.874 79.0879 174.189 79.9465 174.189 81.0879V86.2079H172.733V85.0879C172.477 85.4825 172.109 85.7865 171.629 85.9999C171.159 86.2025 170.599 86.3039 169.949 86.3039C168.999 86.3039 168.237 86.0745 167.661 85.6159C167.095 85.1572 166.813 84.5545 166.813 83.8079C166.813 83.0612 167.085 82.4639 167.629 82.0159C168.173 81.5572 169.037 81.3279 170.221 81.3279H172.653V81.0239C172.653 80.3625 172.461 79.8559 172.077 79.5039C171.693 79.1519 171.127 78.9759 170.381 78.9759C169.879 78.9759 169.389 79.0612 168.909 79.2319C168.429 79.3919 168.023 79.6105 167.693 79.8879L167.053 78.7359C167.49 78.3839 168.013 78.1172 168.621 77.9359C169.229 77.7439 169.874 77.6479 170.557 77.6479ZM170.205 85.1199C170.791 85.1199 171.298 84.9919 171.725 84.7359C172.151 84.4692 172.461 84.0959 172.653 83.6159V82.4319H170.285C168.983 82.4319 168.333 82.8692 168.333 83.7439C168.333 84.1705 168.498 84.5065 168.829 84.7519C169.159 84.9972 169.618 85.1199 170.205 85.1199ZM180.65 86.3039C179.786 86.3039 179.013 86.1172 178.33 85.7439C177.658 85.3705 177.13 84.8585 176.746 84.2079C176.362 83.5465 176.17 82.7999 176.17 81.9679C176.17 81.1359 176.362 80.3945 176.746 79.7439C177.13 79.0825 177.658 78.5705 178.33 78.2079C179.013 77.8345 179.786 77.6479 180.65 77.6479C181.418 77.6479 182.101 77.8025 182.698 78.1119C183.306 78.4212 183.776 78.8692 184.106 79.4559L182.938 80.2079C182.672 79.8025 182.341 79.4985 181.946 79.2959C181.552 79.0932 181.114 78.9919 180.634 78.9919C180.08 78.9919 179.578 79.1145 179.13 79.3599C178.693 79.6052 178.346 79.9572 178.09 80.4159C177.845 80.8639 177.722 81.3812 177.722 81.9679C177.722 82.5652 177.845 83.0932 178.09 83.5519C178.346 83.9999 178.693 84.3465 179.13 84.5919C179.578 84.8372 180.08 84.9599 180.634 84.9599C181.114 84.9599 181.552 84.8585 181.946 84.6559C182.341 84.4532 182.672 84.1492 182.938 83.7439L184.106 84.4799C183.776 85.0665 183.306 85.5199 182.698 85.8399C182.101 86.1492 181.418 86.3039 180.65 86.3039Z" fill="white"/>
<g clip-path="url(#clip0_8_1117)">
<g opacity="0.75">
<path opacity="0.75" d="M96.0196 60.3764C112.219 60.3764 125.351 47.2441 125.351 31.0446C125.351 14.8451 112.219 1.71278 96.0196 1.71278C79.8201 1.71278 66.6877 14.8451 66.6877 31.0446C66.6877 47.2441 79.8201 60.3764 96.0196 60.3764Z" stroke="white" stroke-width="2"/>
<path opacity="0.75" d="M91.8013 23.7378L104.458 31.0453L91.8013 38.3528V23.7378Z" stroke="white" stroke-width="2"/>
</g>
</g>
<defs>
<clipPath id="clip0_8_1117">
<rect width="60.2709" height="60.2709" fill="white" transform="translate(65.8849 0.90989)"/>
</clipPath>
</defs>
</svg>
